<svg width="16" height="16" viewBox="0 0 16 16" fill="none" xmlns="http://www.w3.org/2000/svg">
<rect width="16" height="16" rx="8" fill="black"/>
<circle cx="7.99998" cy="7.99998" r="6.4" fill="white"/>
<line x1="8.1166" y1="8.172" x2="8.1166" y2="13.3181" stroke="black" stroke-width="1.71538"/>
<path d="M7.94348 5.61299C8.02046 5.47966 8.21291 5.47966 8.28989 5.61299L11.1622 10.588C11.2392 10.7213 11.143 10.888 10.989 10.888H5.24437C5.09041 10.888 4.99419 10.7213 5.07117 10.588L7.94348 5.61299Z" fill="black"/>
<path d="M7.94346 4.46943C8.02044 4.3361 8.21289 4.3361 8.28987 4.46943L10.667 8.58674C10.744 8.72007 10.6478 8.88674 10.4938 8.88674H5.73954C5.58558 8.88674 5.48936 8.72007 5.56634 8.58674L7.94346 4.46943Z" fill="black"/>
<path d="M7.86337 3.49995C7.94035 3.36662 8.1328 3.36662 8.20978 3.49995L10.0917 6.75956C10.1687 6.8929 10.0725 7.05956 9.91851 7.05956H6.15464C6.00068 7.05956 5.90445 6.8929 5.98143 6.75956L7.86337 3.49995Z" fill="black"/>
</svg>
